<?xml version="1.0" standalone="no"?>
<!DOCTYPE svg PUBLIC "-//W3C//DTD SVG 20010904//EN"
 "http://www.w3.org/TR/2001/REC-SVG-20010904/DTD/svg10.dtd">
<svg version="1.0" xmlns="http://www.w3.org/2000/svg"
 width="279.000000pt" height="279.000000pt" viewBox="0 0 279.000000 279.000000"
 preserveAspectRatio="xMidYMid meet">
<metadata>
Created by potrace 1.14, written by Peter Selinger 2001-2017
</metadata>
<g transform="translate(0.000000,279.000000) scale(0.100000,-0.100000)"
fill="#000000" stroke="none">
<path d="M1185 2773 c-145 -25 -365 -95 -406 -130 -8 -7 -20 -13 -25 -13 -30
0 -246 -155 -329 -237 -140 -138 -271 -341 -331 -514 -25 -72 -29 -87 -38
-129 -3 -11 -7 -24 -10 -28 -2 -4 -7 -26 -10 -48 -4 -22 -9 -51 -12 -64 -10
-41 -13 -322 -4 -370 4 -25 11 -61 14 -80 12 -77 19 -106 48 -193 16 -51 30
-96 31 -102 1 -5 4 -12 7 -15 3 -3 21 -36 40 -75 19 -38 40 -76 47 -83 6 -6
15 -21 18 -32 3 -11 11 -20 17 -20 6 0 9 -3 5 -6 -3 -4 1 -13 9 -21 8 -8 12
-19 8 -24 -3 -5 0 -8 8 -7 7 2 14 -7 16 -20 2 -12 7 -20 11 -17 10 5 71 -69
71 -86 0 -7 3 -10 6 -6 8 7 53 -36 47 -45 -2 -5 1 -8 7 -8 10 0 53 -35 106
-88 13 -12 26 -21 28 -20 2 2 16 -7 30 -19 14 -13 26 -20 26 -16 0 3 8 -3 18
-13 9 -10 24 -20 32 -22 8 -2 17 -7 20 -11 3 -3 28 -18 55 -31 28 -14 53 -29
56 -33 3 -5 9 -8 13 -7 6 2 34 -7 98 -33 15 -6 25 -14 23 -17 -2 -3 6 -7 18
-7 42 -3 67 -7 67 -13 0 -3 8 -7 18 -8 17 -2 53 -9 62 -12 11 -5 26 -7 53 -8
16 -1 26 -6 23 -10 -7 -11 405 -12 426 -1 10 5 38 11 63 12 25 1 45 5 45 10 0
4 11 7 24 7 14 0 27 4 31 10 3 5 12 7 19 4 8 -3 17 0 21 5 3 6 10 9 15 6 5 -3
11 -1 15 5 9 15 27 12 20 -3 -4 -6 0 -4 9 7 8 10 22 16 30 13 8 -3 17 1 20 10
4 9 9 13 12 10 5 -4 71 28 184 89 19 10 39 25 43 32 4 6 13 12 19 12 5 0 27
13 48 30 20 16 40 26 44 22 4 -4 6 -2 4 4 -4 13 54 64 73 64 7 0 10 3 7 6 -8
7 28 44 43 44 5 0 8 4 4 9 -3 6 0 13 8 18 7 4 33 33 57 63 25 30 51 61 58 68
6 7 12 16 12 20 0 4 11 20 25 36 14 16 25 34 25 41 0 6 9 21 20 33 12 12 18
22 15 22 -3 0 -1 9 5 20 6 11 16 17 22 14 7 -5 8 -2 3 5 -7 13 22 90 38 102 5
3 8 9 8 13 -1 3 -1 7 0 9 0 1 2 13 5 26 2 14 9 30 14 36 5 7 7 15 3 18 -3 4
-2 7 3 7 5 0 10 14 11 32 1 17 6 34 10 37 5 3 9 15 9 26 1 11 5 36 9 55 13 69
17 95 16 118 -1 15 3 21 11 16 7 -4 8 -3 4 4 -4 7 -9 78 -11 160 -1 81 -6 158
-9 172 -3 14 -9 41 -12 60 -36 199 -162 469 -286 611 -68 78 -126 139 -132
139 -4 0 -17 10 -29 23 -74 78 -261 193 -407 250 -93 36 -160 55 -280 78 -86
17 -343 18 -435 2z"/>
<path d="M2140 210 c8 -5 20 -10 25 -10 6 0 3 5 -5 10 -8 5 -19 10 -25 10 -5
0 -3 -5 5 -10z"/>
<path d="M750 111 c0 -6 4 -13 10 -16 6 -3 7 1 4 9 -7 18 -14 21 -14 7z"/>
</g>
</svg>
